<?xml version="1.0" encoding="UTF-8"?>
<svg width="15px" height="13px" viewBox="0 0 15 13" version="1.1" xmlns="http://www.w3.org/2000/svg" xmlns:xlink="http://www.w3.org/1999/xlink">
    <!-- Generator: Sketch 48.2 (47327) - http://www.bohemiancoding.com/sketch -->
    <title>photo</title>
    <desc>Created with Sketch.</desc>
    <defs>
        <polygon id="path-1" points="15 6.5 15 13 0 13 0 6.5 0 0 15 0"></polygon>
    </defs>
    <g id="업체설정_객실관리" stroke="none" stroke-width="1" fill="none" fill-rule="evenodd" transform="translate(-659.000000, -935.000000)">
        <g id="BODY" transform="translate(470.000000, 100.000000)">
            <g id="사진" transform="translate(40.000000, 825.000000)">
                <g id="photo" transform="translate(149.000000, 10.000000)">
                    <g id="Page-1">
                        <g>
                            <mask id="mask-2" fill="white">
                                <use xlink:href="#path-1"></use>
                            </mask>
                            <g id="Clip-2"></g>
                            <path d="M7.5,5.14583333 C8.68017857,5.14583333 9.64285714,6.1108125 9.64285714,7.29977083 C9.64285714,8.48872917 8.68017857,9.45370833 7.5,9.45370833 C6.31982143,9.45370833 5.35714286,8.48872917 5.35714286,7.29977083 C5.35714286,6.1108125 6.31982143,5.14583333 7.5,5.14583333 Z M7.5,4.0625 C5.72544643,4.0625 4.28571429,5.51389583 4.28571429,7.29977083 C4.28571429,9.085375 5.72544643,10.5370417 7.5,10.5370417 C9.27455357,10.5370417 10.7142857,9.085375 10.7142857,7.29977083 C10.7142857,5.51389583 9.27455357,4.0625 7.5,4.0625 Z M5.45758929,1.08333333 L9.54241071,1.08333333 C9.84375,1.08333333 10.1158929,1.36689583 10.1828571,1.76041667 L10.2916071,2.36139583 L10.4507143,3.25 L12.8571429,3.25 C13.4472321,3.25 13.9285714,3.7366875 13.9285714,4.33333333 L13.9285714,10.8333333 C13.9285714,11.4299792 13.4472321,11.9166667 12.8571429,11.9166667 L2.14285714,11.9166667 C1.55276786,11.9166667 1.07142857,11.4299792 1.07142857,10.8333333 L1.07142857,4.33333333 C1.07142857,3.7366875 1.55276786,3.25 2.14285714,3.25 L4.54928571,3.25 L4.70839286,2.36139583 L4.813125,1.76041667 C4.88410714,1.36689583 5.15625,1.08333333 5.45758929,1.08333333 Z M5.45758929,0 C4.633125,0 3.92169643,0.655958333 3.75830357,1.5656875 L3.65383929,2.16666667 L2.14285714,2.16666667 C0.958392857,2.16666667 0,3.13570833 0,4.33333333 L0,10.8333333 C0,12.0306875 0.958392857,13 2.14285714,13 L12.8571429,13 C14.0416071,13 15,12.0306875 15,10.8333333 L15,4.33333333 C15,3.13570833 14.0416071,2.16666667 12.8571429,2.16666667 L11.3461607,2.16666667 L11.2374107,1.5656875 C11.0783036,0.655958333 10.366875,0 9.54241071,0 L5.45758929,0 Z" id="Fill-1" fill="#929292" mask="url(#mask-2)"></path>
                        </g>
                    </g>
                </g>
            </g>
        </g>
    </g>
</svg>