<?xml version="1.0" encoding="UTF-8"?>
<svg width="16px" height="19px" viewBox="0 0 16 19" version="1.1" xmlns="http://www.w3.org/2000/svg" xmlns:xlink="http://www.w3.org/1999/xlink">
    <!-- Generator: Sketch 49 (51002) - http://www.bohemiancoding.com/sketch -->
    <title>마이페이지_g</title>
    <desc>Created with Sketch.</desc>
    <defs></defs>
    <g id="Pages" stroke="none" stroke-width="1" fill="none" fill-rule="evenodd">
        <g id="설정_판매사-연동신청" transform="translate(-1840.000000, -24.000000)" fill="#929292">
            <g id="TOP" transform="translate(220.000000, 0.000000)">
                <g id="마이페이지_g" transform="translate(1618.000000, 23.229560)">
                    <path d="M6.14814815,5.96451613 C6.14814815,3.87419355 7.86666667,2.19032258 10,2.19032258 C12.1333333,2.19032258 13.8518519,3.87419355 13.8518519,5.96451613 C13.8518519,8.05483871 12.1333333,9.73870968 10,9.73870968 C7.86666667,9.73870968 6.14814815,8.02580645 6.14814815,5.96451613 M10.237037,10.8709677 C12.9037037,10.7548387 15.037037,8.57741935 15.037037,5.93548387 C15.037037,3.20645161 12.7851852,1 10,1 C7.21481481,1 4.96296296,3.20645161 4.96296296,5.93548387 C4.96296296,8.57741935 7.0962963,10.7258065 9.76296296,10.8709677 C5.37777778,11.016129 2,14.4419355 2,19 L3.18518519,19 C3.18518519,14.9354839 6.11851852,12.0322581 10,12.0322581 C13.8814815,12.0322581 16.8148148,14.9354839 16.8148148,19 L18,19 C18,14.4419355 14.6222222,11.016129 10.237037,10.8709677" id="Fill-1"></path>
                </g>
            </g>
        </g>
    </g>
</svg>