<?xml version="1.0" encoding="UTF-8"?>
<svg width="16px" height="18px" viewBox="0 0 16 18" version="1.1" xmlns="http://www.w3.org/2000/svg" xmlns:xlink="http://www.w3.org/1999/xlink">
    <!-- Generator: Sketch 49.2 (51160) - http://www.bohemiancoding.com/sketch -->
    <title>notice</title>
    <desc>Created with Sketch.</desc>
    <defs>
        <polygon id="path-1" points="0 0 15.5934359 0 15.5934359 14.3589333 0 14.3589333"></polygon>
    </defs>
    <g id="Pages" stroke="none" stroke-width="1" fill="none" fill-rule="evenodd">
        <g id="메인" transform="translate(-1012.000000, -998.000000)">
            <g id="BODY" transform="translate(250.000000, 101.000000)">
                <g id="공지사항" transform="translate(720.000000, 822.000000)">
                    <g id="notice" transform="translate(41.000000, 75.000000)">
                        <path d="M8.7968,17.2306051 C10.0152615,17.2306051 11.0285949,16.3448615 11.2214154,15.1793231 L6.37218462,15.1793231 C6.56500513,16.3448615 7.57833846,17.2306051 8.7968,17.2306051" id="Fill-1" fill="#C4C4C4"></path>
                        <g id="Group-5" stroke-width="1" transform="translate(1.000000, 0.000000)">
                            <mask id="mask-2" fill="white">
                                <use xlink:href="#path-1"></use>
                            </mask>
                            <g id="Clip-4"></g>
                            <path d="M14.4674872,11.3804718 C12.8633846,9.57534359 12.8633846,9.05431795 12.8633846,7.08508718 L12.8633846,6.61739487 C12.8592821,6.47380513 12.8551795,6.33842051 12.8469744,6.19893333 C12.6910769,3.58149744 10.9844103,2.19483077 9.30235897,1.71072821 C9.31097436,1.65329231 9.31466667,1.59175385 9.31466667,1.53431795 C9.31466667,0.685087179 8.63364103,-4.1025641e-05 7.79671795,-4.1025641e-05 C6.95979487,-4.1025641e-05 6.27876923,0.685087179 6.27876923,1.53431795 C6.27876923,1.59175385 6.28287179,1.65329231 6.29107692,1.71072821 C4.60902564,2.19483077 2.90235897,3.58149744 2.74646154,6.19893333 C2.73825641,6.33842051 2.73415385,6.47380513 2.73005128,6.61739487 L2.73005128,7.08508718 C2.73005128,9.05431795 2.73005128,9.57534359 1.13005128,11.3722667 C1.01107692,11.5035487 -0.0514871795,12.6686769 0.00184615385,13.6368821 L0.00184615385,14.3589333 L15.5915897,14.3589333 L15.5915897,13.6619077 C15.6449231,12.6686769 14.582359,11.5035487 14.4674872,11.3804718" id="Fill-3" fill="#C4C4C4" mask="url(#mask-2)"></path>
                        </g>
                    </g>
                </g>
            </g>
        </g>
    </g>
</svg>