<?xml version="1.0" encoding="UTF-8"?>
<svg width="167px" height="41px" viewBox="0 0 167 41" version="1.1" xmlns="http://www.w3.org/2000/svg" xmlns:xlink="http://www.w3.org/1999/xlink">
    <!-- Generator: Sketch 49.2 (51160) - http://www.bohemiancoding.com/sketch -->
    <title>ONDA</title>
    <desc>Created with Sketch.</desc>
    <defs>
        <polygon id="path-1" points="36.3001039 41 0.175919991 41 0.175919991 0.191011765 36.3001039 0.191011765 36.3001039 41"></polygon>
        <polygon id="path-3" points="40.4200973 41 0.000477801519 41 0.000477801519 0.191011765 40.4200973 0.191011765 40.4200973 41"></polygon>
    </defs>
    <g id="Pages" stroke="none" stroke-width="1" fill="none" fill-rule="evenodd">
        <g id="로그인" transform="translate(-867.000000, -425.000000)">
            <g id="Group" transform="translate(650.000000, 425.000000)">
                <g id="onda_w" transform="translate(217.000000, 0.000000)">
                    <g id="ONDA">
                        <polygon id="Fill-1" fill="#FEFEFE" points="73.4285714 0 73.4285714 26.1686662 54.5714286 0 46 0 46 41 54.5714286 41 54.5714286 14.8313338 73.4285714 41 82 41 82 0"></polygon>
                        <path d="M139.794376,0 L124,41 L133.653608,41 L157.346392,41 L167,41 L151.203186,0 L139.794376,0 Z M145.498781,10.2493942 L153.987131,32.2771113 L137.012869,32.2771113 L145.498781,10.2493942 Z" id="Fill-2" fill="#FEFEFE"></path>
                        <g id="Group-9">
                            <g id="Group-5" transform="translate(87.547483, 0.000000)">
                                <mask id="mask-2" fill="white">
                                    <use xlink:href="#path-1"></use>
                                </mask>
                                <g id="Clip-4"></g>
                                <path d="M16.0890996,8.87336471 L8.77634734,8.87336471 L8.77634734,32.3181294 L16.0890996,32.3181294 C22.501196,32.3181294 27.6996765,27.0677176 27.6996765,20.5945412 C27.6996765,14.1213647 22.501196,8.87336471 16.0890996,8.87336471 M16.0890996,41.0004824 L8.77634734,41.0004824 L0.175919991,41.0004824 L0.175919991,0.191011765 L8.77634734,0.191011765 L16.0890996,0.191011765 C27.2505431,0.191011765 36.3001039,9.32677647 36.3001039,20.5945412 C36.3001039,31.8647176 27.2505431,41.0004824 16.0890996,41.0004824" id="Fill-3" fill="#FEFEFE" mask="url(#mask-2)"></path>
                            </g>
                            <g id="Group-8">
                                <mask id="mask-4" fill="white">
                                    <use xlink:href="#path-3"></use>
                                </mask>
                                <g id="Clip-7"></g>
                                <path d="M20.2114821,8.87336471 C13.7993857,8.87336471 8.60090515,14.1213647 8.60090515,20.5945412 C8.60090515,27.0677176 13.7993857,32.3181294 20.2114821,32.3181294 C26.6235785,32.3181294 31.822059,27.0677176 31.822059,20.5945412 C31.822059,14.1213647 26.6235785,8.87336471 20.2114821,8.87336471 M20.2114821,41.0004824 C9.05003858,41.0004824 0.000477801519,31.8647176 0.000477801519,20.5945412 C0.000477801519,9.32677647 9.05003858,0.191011765 20.2114821,0.191011765 C31.3753146,0.191011765 40.4200973,9.32677647 40.4200973,20.5945412 C40.4200973,31.8647176 31.3753146,41.0004824 20.2114821,41.0004824" id="Fill-6" fill="#FEFEFE" mask="url(#mask-4)"></path>
                            </g>
                        </g>
                    </g>
                </g>
            </g>
        </g>
    </g>
</svg>