<?xml version="1.0" encoding="UTF-8"?>
<svg width="15px" height="10px" viewBox="0 0 15 10" version="1.1" xmlns="http://www.w3.org/2000/svg" xmlns:xlink="http://www.w3.org/1999/xlink">
    <!-- Generator: Sketch 49.2 (51160) - http://www.bohemiancoding.com/sketch -->
    <title>icon_접기_w</title>
    <desc>Created with Sketch.</desc>
    <defs>
        <polygon id="path-1" points="0 4.83870968e-05 14.8432258 4.83870968e-05 14.8432258 9.3603641 0 9.3603641"></polygon>
    </defs>
    <g id="Pages" stroke="none" stroke-width="1" fill="none" fill-rule="evenodd">
        <g id="메인" transform="translate(-30.000000, -1608.000000)">
            <g id="GNB">
                <g id="1depth">
                    <g id="icon_접기_w" transform="translate(30.000000, 1606.000000)">
                        <g id="Page-1" stroke-width="1">
                            <mask id="mask-2" fill="white">
                                <use xlink:href="#path-1"></use>
                            </mask>
                            <g id="Clip-2"></g>
                        </g>
                        <path d="M5.33653381,2.60106077 L1.09183248,6.95589948 C0.969389173,7.08089948 0.969389173,7.27944786 1.09183248,7.40444786 L5.33653381,11.7592866 C5.46044644,11.8888027 5.66696748,11.8946092 5.79822671,11.7721898 C5.92915942,11.6499317 5.93519995,11.4455769 5.81128733,11.3162221 C5.8100901,11.3149317 4.57194338,10.0446092 2.09684715,7.50525432 L13.6688825,7.50525432 C13.8491191,7.50783496 13.9973571,7.36541561 13.9999692,7.18735109 C14.0024181,7.00912528 13.8584248,6.86267367 13.678025,6.86009303 C13.6760659,6.86009303 9.81567326,6.86009303 2.09684715,6.86009303 L5.80589982,3.04960915 C5.93275109,2.92299625 5.93177154,2.7188027 5.80361421,2.59348012 C5.73929066,2.53041561 5.651458,2.49670593 5.56101321,2.50025432 C5.47579266,2.50364141 5.39514334,2.53977045 5.33653381,2.60106077 Z" id="Fill-1" stroke="#FFFFFF" stroke-width="0.2" fill="#FFFFFF"></path>
                    </g>
                </g>
            </g>
        </g>
    </g>
</svg>