<?xml version="1.0" encoding="UTF-8"?>
<svg width="18px" height="18px" viewBox="0 0 18 18" version="1.1" xmlns="http://www.w3.org/2000/svg" xmlns:xlink="http://www.w3.org/1999/xlink">
    <!-- Generator: Sketch 48.2 (47327) - http://www.bohemiancoding.com/sketch -->
    <title>icon_객실달력</title>
    <desc>Created with Sketch.</desc>
    <defs></defs>
    <g id="업체설정_객실등록" stroke="none" stroke-width="1" fill="none" fill-rule="evenodd" transform="translate(-31.000000, -198.000000)">
        <g id="GNB" fill="#FFFFFF">
            <g id="1depth">
                <g id="icon_객실달력" transform="translate(30.000000, 197.000000)">
                    <path d="M17.9991605,6.50117283 L1.99995062,6.50117283 L1.99995062,5.00080248 C1.99995062,4.17328779 2.67280628,3.50043213 3.50032097,3.50043213 L5.00069132,3.50043213 L5.00069132,4.50038275 L5.9997531,4.50038275 L5.9997531,3.50132097 L13.9993581,3.50132097 L13.9993581,4.50127159 L14.9993087,4.50127159 L14.9993087,3.50132097 L16.499679,3.50132097 C17.3263049,3.50132097 17.9991605,4.17328779 17.9991605,5.00080248 L17.9991605,6.50117283 Z M17.9991605,16.500679 C17.9991605,17.3273049 17.3263049,18.0001605 16.499679,18.0001605 L3.50032097,18.0001605 C2.67280628,18.0001605 1.99995062,17.3273049 1.99995062,16.500679 L1.99995062,7.50112345 L17.9991605,7.50112345 L17.9991605,16.500679 Z M14.9993087,2.50137035 L14.9993087,1.001 L13.9993581,1.001 L13.9993581,2.50137035 L5.9997531,2.50137035 L5.9997531,1.001 L4.99980248,1.001 L4.99980248,2.50137035 L3.50032097,2.50137035 C2.12172238,2.50137035 1,3.62309274 1,5.00169132 L1,16.5015679 C1,17.8801665 2.12172238,19.001 3.50032097,19.001 L16.499679,19.001 C17.8782776,19.001 19,17.8801665 19,16.5015679 L19,7.50112345 L19,6.50117283 L19,5.00080248 C18.9991112,3.62220389 17.8773888,2.50137035 16.499679,2.50137035 L14.9993087,2.50137035 Z" id="Page-1"></path>
                </g>
            </g>
        </g>
    </g>
</svg>