<?xml version="1.0" encoding="UTF-8"?>
<svg width="20px" height="20px" viewBox="0 0 20 20" version="1.1" xmlns="http://www.w3.org/2000/svg" xmlns:xlink="http://www.w3.org/1999/xlink">
    <!-- Generator: Sketch 49.2 (51160) - http://www.bohemiancoding.com/sketch -->
    <title>icon_통계</title>
    <desc>Created with Sketch.</desc>
    <defs>
        <path d="M11.1790019,7.82099813 L17.8128501,7.82099813 C17.6407231,4.24062129 14.7593787,1.35893736 11.1790019,1.18681039 L11.1790019,7.82099813 Z M18.1604991,8.5 L10.8395009,8.5 C10.6517569,8.5 10.5,8.34790358 10.5,8.16049907 L10.5,0.839500934 C10.5,0.651756917 10.6517569,0.5 10.8395009,0.5 C15.0635715,0.5 18.5,3.93642845 18.5,8.16049907 C18.5,8.34790358 18.3482431,8.5 18.1604991,8.5 Z" id="path-1"></path>
        <path d="M8.1178314,2.76059106 C4.02220984,2.9586145 0.752940815,6.35098934 0.752940815,10.4925403 C0.752940815,14.7609618 4.22550386,18.2339013 8.49430181,18.2339013 C12.6366057,18.2339013 16.0297335,14.9635029 16.226251,10.8690107 L8.49430181,10.8690107 C8.28611367,10.8690107 8.1178314,10.700352 8.1178314,10.4925403 L8.1178314,2.76059106 Z M8.49430181,18.9868421 C3.81063347,18.9868421 0,15.1762086 0,10.4925403 C0,5.81000137 3.80912758,2.00012084 8.49129005,1.99861496 L8.49204299,1.99861496 L8.49430181,1.99861496 C8.70248994,1.99861496 8.87190163,2.16689723 8.87190163,2.37508537 C8.87190163,2.38449713 8.87152516,2.39428536 8.87077222,2.40407359 L8.87077222,10.1160699 L16.6117567,10.1160699 C16.8199449,10.1160699 16.9882271,10.2847286 16.9882271,10.4925403 C16.9882271,15.1762086 13.1779702,18.9868421 8.49430181,18.9868421 Z" id="path-2"></path>
    </defs>
    <g id="Pages" stroke="none" stroke-width="1" fill="none" fill-rule="evenodd">
        <g id="메인" transform="translate(-30.000000, -444.000000)">
            <g id="GNB">
                <g id="1depth">
                    <g id="icon_통계" transform="translate(30.000000, 444.000000)">
                        <g id="Page-1" transform="translate(0.500000, 0.500000)">
                            <g id="Fill-1">
                                <use fill="#FFFFFF" fill-rule="evenodd" xlink:href="#path-1"></use>
                                <path stroke="#FFFFFF" stroke-width="0.1" d="M11.2290019,7.77139608 L17.7629078,7.82339911 C17.5920142,4.26867782 14.73118,1.40763945 11.2290019,1.18681039 L11.2290019,7.77139608 Z M18.1604991,8.55 L10.8395009,8.55 C10.6242522,8.55 10.45,8.3756274 10.45,8.16049907 L10.45,0.839500934 C10.45,0.62414268 10.6241427,0.45 10.8395009,0.45 C15.0911858,0.45 18.55,3.90881421 18.55,8.16049907 C18.55,8.3756274 18.3757478,8.55 18.1604991,8.55 Z"></path>
                            </g>
                            <g id="Fill-3">
                                <use fill="#FFFFFF" fill-rule="evenodd" xlink:href="#path-2"></use>
                                <path stroke="#FFFFFF" stroke-width="0.1" d="M8.0678314,2.8132444 C4.00976123,3.03693538 0.802940815,6.40905897 0.802940815,10.4925403 C0.802940815,14.7334779 4.25324841,18.1839013 8.49430181,18.1839013 C12.5959495,18.1839013 15.9803982,14.948455 16.226251,10.9190107 L8.49430181,10.9190107 C8.2586217,10.9190107 8.0678314,10.7280886 8.0678314,10.4925403 L8.0678314,2.8132444 Z M8.49430181,19.0368421 C3.78301923,19.0368421 -0.05,15.2038229 -0.05,10.4925403 C-0.05,5.78254105 3.7813559,1.95012977 8.49129005,1.94861496 L8.49430181,1.94861496 C8.73027379,1.94861496 8.92190163,2.13945149 8.92190163,2.37508537 C8.92168772,2.39133915 8.92168772,2.39133915 8.92077222,2.40407359 L8.87077222,10.0660699 L16.6117567,10.0660699 C16.8474369,10.0660699 17.0382271,10.256992 17.0382271,10.4925403 C17.0382271,15.2038938 13.2055134,19.0368421 8.49430181,19.0368421 Z"></path>
                            </g>
                        </g>
                    </g>
                </g>
            </g>
        </g>
    </g>
</svg>