<?xml version="1.0" encoding="UTF-8"?>
<svg width="19px" height="20px" viewBox="0 0 19 20" version="1.1" xmlns="http://www.w3.org/2000/svg" xmlns:xlink="http://www.w3.org/1999/xlink">
    <!-- Generator: Sketch 48.2 (47327) - http://www.bohemiancoding.com/sketch -->
    <title>icon_설정</title>
    <desc>Created with Sketch.</desc>
    <defs></defs>
    <g id="업체설정_객실등록" stroke="none" stroke-width="1" fill="none" fill-rule="evenodd" transform="translate(-30.000000, -353.000000)">
        <g id="GNB" stroke="#FFFFFF" stroke-width="1.2">
            <g id="1depth">
                <g id="icon_설정" transform="translate(30.000000, 353.000000)">
                    <path d="M7.70646058,13.1233425 C9.55356679,14.189451 11.9149022,13.5568011 12.9816543,11.7096949 C14.0477628,9.86291045 13.4147911,7.50125323 11.5680067,6.43482293 C9.72090045,5.36871442 7.35924323,6.00136438 6.29313472,7.84814879 C5.22670442,9.69525499 5.85935438,12.0569122 7.70646058,13.1233425 Z" id="Path"></path>
                    <path d="M3.56012549,15.566414 C3.24862744,15.7353566 2.85281897,15.6233718 2.67357887,15.3125173 L1.36451476,13.04225 C1.18656184,12.7330046 1.28728384,12.3320474 1.58880622,12.1473367 L2.49626955,11.5912741 C2.79811373,11.4065635 3.04267832,10.9676344 3.04267832,10.6152683 L3.04171293,8.94225351 C3.04139114,8.58795666 2.79586117,8.15063656 2.49466057,7.96592594 L1.58719725,7.40986331 C1.28503127,7.22483089 1.18398748,6.82580447 1.36354937,6.5152718 L2.67357887,4.2456481 C2.85217538,3.93672442 3.24959283,3.8234524 3.56044729,3.99239504 L4.49558503,4.50018835 C4.80676128,4.66913099 5.30908407,4.66172969 5.6147898,4.48570755 L7.06383496,3.65000462 C7.37082787,3.47301709 7.62697709,3.04213291 7.63630916,2.68880144 L7.66398358,1.6249455 C7.67299385,1.27064865 7.96840213,0.983607059 8.32688232,0.983285264 L10.9475849,0.981676286 C11.3044561,0.981676286 11.6014734,1.26903967 11.6104837,1.62269293 L11.6384799,2.68687067 C11.6474901,3.04084573 11.9052483,3.4726953 12.2103105,3.64903923 L13.6596774,4.48538575 C13.9663486,4.66269508 14.4680278,4.66880919 14.7788822,4.50018835 L15.7143417,3.99207324 C16.0258398,3.8231306 16.4219701,3.93511544 16.6008884,4.2456481 L17.9096307,6.51591539 C18.0882272,6.82516088 17.9871834,7.22611808 17.685661,7.4108287 L16.7781977,7.96689133 C16.4763535,8.15192375 16.2317889,8.59085282 16.2317889,8.94321889 L16.2327543,10.6159119 C16.2330761,10.9702088 16.4786061,11.4075289 16.7798067,11.5925613 L17.6875918,12.1483021 C17.989436,12.3333345 18.0904798,12.7326828 17.9112397,13.0428936 L16.6008884,15.3125173 C16.4222919,15.6217628 16.0248744,15.734713 15.7143417,15.5660922 L14.779204,15.0582989 C14.467706,14.8890345 13.9650614,14.8964358 13.6596774,15.0727797 L12.2106323,15.9081608 C11.9036394,16.0851484 11.6474901,16.5163543 11.6384799,16.8696858 L11.6104837,17.9332199 C11.6014734,18.2875168 11.3060651,18.5745584 10.9475849,18.5748802 L8.32688232,18.5764892 C7.9700111,18.5764892 7.67331565,18.2891258 7.66398358,17.9354725 L7.63630916,16.8712948 C7.62697709,16.5173197 7.36921889,16.0857919 7.06383496,15.909448 L5.6147898,15.0727797 C5.30811868,14.8957922 4.80643949,14.8893563 4.49558503,15.0582989 L3.56012549,15.566414 Z" id="Path"></path>
                </g>
            </g>
        </g>
    </g>
</svg>