<?xml version="1.0" encoding="UTF-8"?>
<svg width="18px" height="18px" viewBox="0 0 18 18" version="1.1" xmlns="http://www.w3.org/2000/svg" xmlns:xlink="http://www.w3.org/1999/xlink">
    <!-- Generator: Sketch 49.2 (51160) - http://www.bohemiancoding.com/sketch -->
    <title>icon_할인요금</title>
    <desc>Created with Sketch.</desc>
    <defs></defs>
    <g id="Pages" stroke="none" stroke-width="1" fill="none" fill-rule="evenodd" stroke-linecap="round" stroke-linejoin="round">
        <g id="메인(GNB-접혔을떄)" transform="translate(-31.000000, -346.000000)" stroke="#FFFFFF">
            <g id="GNB">
                <g id="1depth">
                    <g id="icon_할인요금" transform="translate(30.000000, 345.000000)">
                        <path d="M6.12903226,5.62908387 C4.98890323,5.62908387 4.06451613,4.70469677 4.06451613,3.56456774 C4.06451613,2.42443871 4.98890323,1.50005161 6.12903226,1.50005161 C7.26916129,1.50005161 8.19354839,2.42443871 8.19354839,3.56456774 C8.19354839,4.70469677 7.26916129,5.62908387 6.12903226,5.62908387 Z" id="Stroke-1"></path>
                        <path d="M2,3.56456774 L4.06451613,3.56456774" id="Stroke-3"></path>
                        <path d="M18,3.56456774 L8.19354839,3.56456774" id="Stroke-5"></path>
                        <path d="M13.8709677,7.72585806 C15.0110968,7.72585806 15.9354839,8.65024516 15.9354839,9.79037419 C15.9354839,10.9305032 15.0110968,11.8548903 13.8709677,11.8548903 C12.7308387,11.8548903 11.8064516,10.9305032 11.8064516,9.79037419 C11.8064516,8.65024516 12.7308387,7.72585806 13.8709677,7.72585806 Z" id="Stroke-7"></path>
                        <path d="M18,9.79037419 L15.9354839,9.79037419" id="Stroke-9"></path>
                        <path d="M2,9.79037419 L11.8064516,9.79037419" id="Stroke-11"></path>
                        <path d="M8.70967742,13.9514065 C9.84980645,13.9514065 10.7741935,14.8757935 10.7741935,16.0159226 C10.7741935,17.1560516 9.84980645,18.0804387 8.70967742,18.0804387 C7.56954839,18.0804387 6.64516129,17.1560516 6.64516129,16.0159226 C6.64516129,14.8757935 7.56954839,13.9514065 8.70967742,13.9514065 Z" id="Stroke-13"></path>
                        <path d="M18,16.0159226 L10.7741935,16.0159226" id="Stroke-15"></path>
                        <path d="M2,16.0159226 L6.64516129,16.0159226" id="Stroke-17"></path>
                    </g>
                </g>
            </g>
        </g>
    </g>
</svg>