<?xml version="1.0" encoding="UTF-8"?>
<svg width="42px" height="10px" viewBox="0 0 42 10" version="1.1" xmlns="http://www.w3.org/2000/svg" xmlns:xlink="http://www.w3.org/1999/xlink">
    <!-- Generator: Sketch 48.2 (47327) - http://www.bohemiancoding.com/sketch -->
    <title>onda_w</title>
    <desc>Created with Sketch.</desc>
    <defs>
        <polygon id="path-1" points="9.12936744 10 0.0442433509 10 0.0442433509 0.0465882353 9.12936744 0.0465882353 9.12936744 10"></polygon>
        <polygon id="path-3" points="10.1655335 10 0.000120165652 10 0.000120165652 0.0465882353 10.1655335 0.0465882353 10.1655335 10"></polygon>
    </defs>
    <g id="메인" stroke="none" stroke-width="1" fill="none" fill-rule="evenodd" transform="translate(-31.000000, -1171.000000)">
        <g id="gnb">
            <g id="logo" transform="translate(31.000000, 26.000000)">
                <g id="onda_w" transform="translate(0.000000, 1145.000000)">
                    <g id="ONDA">
                        <polygon id="Fill-1" fill="#FEFEFE" points="18.4670659 0 18.4670659 6.3826015 13.7245509 0 11.5688623 0 11.5688623 10 13.7245509 10 13.7245509 3.6173985 18.4670659 10 20.6227545 10 20.6227545 0"></polygon>
                        <path d="M35.157867,0 L31.1856287,10 L33.6134824,10 L39.5721464,10 L42,10 L38.0271486,0 L35.157867,0 Z M36.5925078,2.49985225 L38.7273024,7.87246617 L34.4583264,7.87246617 L36.5925078,2.49985225 Z" id="Fill-2" fill="#FEFEFE"></path>
                        <g id="Group-9">
                            <g id="Group-5" transform="translate(22.017930, 0.000000)">
                                <mask id="mask-2" fill="white">
                                    <use xlink:href="#path-1"></use>
                                </mask>
                                <g id="Clip-4"></g>
                                <path d="M4.04636038,2.16423529 L2.20722508,2.16423529 L2.20722508,7.88247059 L4.04636038,7.88247059 C5.65898342,7.88247059 6.96638571,6.60188235 6.96638571,5.02305882 C6.96638571,3.44423529 5.65898342,2.16423529 4.04636038,2.16423529 M4.04636038,10.0001176 L2.20722508,10.0001176 L0.0442433509,10.0001176 L0.0442433509,0.0465882353 L2.20722508,0.0465882353 L4.04636038,0.0465882353 C6.85343,0.0465882353 9.12936744,2.27482353 9.12936744,5.02305882 C9.12936744,7.77188235 6.85343,10.0001176 4.04636038,10.0001176" id="Fill-3" fill="#FEFEFE" mask="url(#mask-2)"></path>
                            </g>
                            <g id="Group-8">
                                <mask id="mask-4" fill="white">
                                    <use xlink:href="#path-3"></use>
                                </mask>
                                <g id="Clip-7"></g>
                                <path d="M5.08312723,2.16423529 C3.47050418,2.16423529 2.16310189,3.44423529 2.16310189,5.02305882 C2.16310189,6.60188235 3.47050418,7.88247059 5.08312723,7.88247059 C6.69575027,7.88247059 8.00315256,6.60188235 8.00315256,5.02305882 C8.00315256,3.44423529 6.69575027,2.16423529 5.08312723,2.16423529 M5.08312723,10.0001176 C2.27605761,10.0001176 0.000120165652,7.77188235 0.000120165652,5.02305882 C0.000120165652,2.27482353 2.27605761,0.0465882353 5.08312723,0.0465882353 C7.89079768,0.0465882353 10.1655335,2.27482353 10.1655335,5.02305882 C10.1655335,7.77188235 7.89079768,10.0001176 5.08312723,10.0001176" id="Fill-6" fill="#FEFEFE" mask="url(#mask-4)"></path>
                            </g>
                        </g>
                    </g>
                </g>
            </g>
        </g>
    </g>
</svg>