<?xml version="1.0" encoding="UTF-8"?>
<svg width="14px" height="14px" viewBox="0 0 14 14" version="1.1" xmlns="http://www.w3.org/2000/svg" xmlns:xlink="http://www.w3.org/1999/xlink">
    <!-- Generator: Sketch 49.2 (51160) - http://www.bohemiancoding.com/sketch -->
    <title>return</title>
    <desc>Created with Sketch.</desc>
    <defs>
        <path d="M1.5,7.25 C1.5,10.6960096 4.30418776,13.5 7.75043998,13.5 C10.0018533,13.5 12.0054123,12.316175 13.1048572,10.5235459 C13.1829327,10.3960789 13.1392104,10.2068656 13.0117345,10.1287956 C12.8841165,10.0507256 12.6948899,10.0988451 12.6168144,10.2264541 C11.6197194,11.8521553 9.80311565,12.9234176 7.75043998,12.9234176 C4.61109543,12.9234176 2.076623,10.3891236 2.076623,7.25 C2.076623,4.11087643 4.61109543,1.57658241 7.75043998,1.57658241 C9.7771378,1.57658241 11.5537101,2.63521156 12.5591805,4.22925893 L10.2371495,3.85225182 C10.0865348,3.80810679 9.92868033,3.89440962 9.88453219,4.04501374 C9.84038405,4.19575981 9.92669296,4.35360314 10.0774496,4.39774818 C10.0774496,4.39774818 11.073289,4.58700877 13.0649678,4.96552997 C13.2151566,5.01052667 13.373295,4.92535941 13.4184368,4.77518112 C13.4187207,4.77404556 13.6084678,3.77673874 13.9876781,1.78326066 C14.0332458,1.63308237 13.9484984,1.47452931 13.7983096,1.42896482 C13.7591299,1.4170414 13.7176789,1.41377666 13.6770796,1.41945448 C13.5620957,1.43364902 13.4674114,1.51611933 13.4376008,1.62797234 L13.0604252,3.94976835 C11.9557279,2.18056029 9.98595425,1 7.75043998,1 C4.30418776,1 1.5,3.80399037 1.5,7.25 Z" id="path-1"></path>
    </defs>
    <g id="Pages" stroke="none" stroke-width="1" fill="none" fill-rule="evenodd">
        <g id="모달_예약복구/삭제" transform="translate(-122.000000, -217.000000)">
            <g id="모달">
                <g id="예약정보" transform="translate(40.000000, 110.000000)">
                    <g id="return" transform="translate(81.000000, 107.000000)">
                        <g id="Fill-1" transform="translate(7.750000, 7.250000) scale(-1, 1) translate(-7.750000, -7.250000) ">
                            <use fill="#929292" fill-rule="evenodd" xlink:href="#path-1"></use>
                            <path stroke="#929292" stroke-width="0.2" d="M13.0031292,3.67915995 L13.3409737,1.60221964 C13.3812934,1.45093546 13.5093806,1.33939751 13.6632294,1.32041827 C13.718207,1.31272962 13.7743206,1.31713613 13.8273411,1.33327171 C14.0303803,1.39487002 14.1449742,1.60926602 14.0859165,1.8019481 C13.5528257,4.6043638 13.516541,4.79507512 13.5142039,4.80396759 C13.4531748,5.00699967 13.2393312,5.12216099 13.0462968,5.06377149 C10.5566984,4.59062 10.5566984,4.59062 10.0493474,4.49371829 C9.84559102,4.43405373 9.72889078,4.22066215 9.78857029,4.01688344 C9.84825485,3.8132794 10.061667,3.69661121 10.2531757,3.75354438 L12.3503027,4.09403586 C11.3187279,2.59534845 9.61456304,1.67658241 7.75043998,1.67658241 C4.66632232,1.67658241 2.176623,4.16610648 2.176623,7.25 C2.176623,10.3338935 4.66632232,12.8234176 7.75043998,12.8234176 C9.72657422,12.8234176 11.5305826,11.8062198 12.5315137,10.1742642 C12.6385453,9.99932851 12.8893953,9.9367271 13.0639613,10.0435175 C13.2383946,10.1503455 13.2971474,10.4010635 13.1901017,10.5758276 C12.0486197,12.4369976 9.9917039,13.6 7.75043998,13.6 C4.24896086,13.6 1.4,10.7512397 1.4,7.25 C1.4,3.74876032 4.24896086,0.9 7.75043998,0.9 C9.87699038,0.9 11.8300553,1.95998888 13.0031292,3.67915995 Z"></path>
                        </g>
                    </g>
                </g>
            </g>
        </g>
    </g>
</svg>