<?xml version="1.0" encoding="UTF-8"?>
<svg width="30px" height="23px" viewBox="0 0 30 23" version="1.1" xmlns="http://www.w3.org/2000/svg" xmlns:xlink="http://www.w3.org/1999/xlink">
    <!-- Generator: Sketch 49.2 (51160) - http://www.bohemiancoding.com/sketch -->
    <title>weather_02</title>
    <desc>Created with Sketch.</desc>
    <defs>
        <polygon id="path-1" points="0 0 30 0 30 23 0 23"></polygon>
    </defs>
    <g id="Pages" stroke="none" stroke-width="1" fill="none" fill-rule="evenodd">
        <g id="메인" transform="translate(-1671.000000, -267.000000)">
            <g id="BODY" transform="translate(250.000000, 101.000000)">
                <g id="오늘날씨" transform="translate(1330.000000, 0.000000)">
                    <g id="weather_02" transform="translate(91.000000, 165.000000)">
                        <g id="Page-1" transform="translate(0.000000, 1.000000)">
                            <mask id="mask-2" fill="white">
                                <use xlink:href="#path-1"></use>
                            </mask>
                            <g id="Clip-2"></g>
                            <path d="M18.5443925,7.56309376 C18.2701939,7.2873339 18.2698428,6.84032752 18.5440414,6.56421457 C18.5440414,6.56421457 18.5443925,6.56386148 18.5443925,6.56386148 L21.2582917,3.83450972 C21.5328414,3.55839677 21.9776681,3.55839677 22.2522178,3.83450972 C22.5264164,4.11026958 22.5264164,4.55762905 22.2522178,4.833742 L19.5379675,7.56309376 C19.26412,7.83885362 18.8192933,7.83920671 18.5450947,7.56344685 C18.5447436,7.56344685 18.5447436,7.56309376 18.5443925,7.56309376 Z M7.52062538,18.6496288 C7.79482399,18.9257418 7.79517508,19.3723951 7.52097647,19.6488611 C7.52097647,19.6488611 7.52062538,19.6488611 7.52062538,19.6488611 L4.81690772,22.3750351 C4.53217651,22.6394962 4.088052,22.6218419 3.82473707,22.3354895 C3.57932756,22.0685568 3.5758167,21.6575651 3.816311,21.3860423 L6.53021017,18.6570436 C6.80265335,18.3791652 7.24712894,18.3756344 7.52343407,18.6492757 C7.52343407,18.6492757 7.52378516,18.6496288 7.52378516,18.6496288 L7.52062538,18.6496288 Z M4.53638955,13.8127091 L0.702173137,13.8127091 C0.314573565,13.8127091 0,13.4963443 0,13.1065378 C0,12.7163782 0.314573565,12.4003666 0.702173137,12.4003666 L4.53638955,12.4003666 C4.92398912,12.4003666 5.23856268,12.7163782 5.23856268,13.1065378 C5.23856268,13.4963443 4.92398912,13.8127091 4.53638955,13.8127091 Z M3.816311,4.83727285 C3.54211239,4.55939448 3.54351673,4.11026958 3.82017295,3.83450972 C4.09612699,3.55839677 4.54270911,3.5601622 4.81690772,3.83804058 L7.52378516,6.55679977 C7.79833485,6.83255963 7.79833485,7.2799191 7.52378516,7.55603205 C7.24958655,7.83179191 6.80475987,7.83179191 6.53021017,7.55603205 L3.816311,4.83727285 Z M12.3301603,4.56186608 L12.3301603,0.706171219 C12.3301603,0.316011621 12.6447338,0 13.0323334,0 C13.4202841,0 13.7345066,0.316011621 13.7345066,0.706171219 L13.7345066,4.56186608 C13.7345066,4.95167259 13.4202841,5.2680373 13.0323334,5.2680373 C12.6447338,5.2680373 12.3301603,4.95167259 12.3301603,4.56186608 Z M25.0254506,21.5735308 L15.7676489,21.5735308 C13.7991065,21.5756493 12.1995561,19.9761715 12.1897256,17.9967735 L12.1897256,17.7037125 C12.3498211,15.8443636 13.8942509,14.4150731 15.7497435,14.4094237 C15.962853,14.4097768 16.1759625,14.4299027 16.3855612,14.4694483 L16.5361774,14.4694483 L16.6172784,14.4694483 L16.6695903,14.4694483 L16.7608728,14.4376706 L16.7963325,14.4376706 C16.8275792,14.4221348 16.8581237,14.4044805 16.8872639,14.3847077 L16.9121911,14.3847077 C16.9406291,14.3642288 16.9676628,14.3419844 16.9925899,14.3176215 L17.017166,14.2964363 C17.0389333,14.2731327 17.0589453,14.2484167 17.0768507,14.2222884 L17.1017778,14.1869798 C17.1161724,14.16297 17.1288115,14.138254 17.1400463,14.1128318 L17.1646223,14.059869 C17.1730484,14.0365653 17.1800701,14.0132617 17.1860386,13.9892519 L17.1860386,13.9327582 C17.1860386,13.9151039 17.1860386,13.9327582 17.1860386,13.9327582 C17.5501154,11.4085491 19.8802769,9.65936302 22.3898437,10.0255128 C24.5430576,10.339759 26.1812276,12.1302561 26.3142894,14.3140906 L26.3142894,14.3847077 L26.3142894,14.4482631 C26.3142894,14.4659174 26.3142894,14.4835717 26.3350035,14.5047568 C26.3434296,14.5287667 26.3525578,14.5520703 26.3634415,14.575374 L26.3946882,14.624806 L26.4336588,14.6883614 L26.4757892,14.7342625 L26.5245902,14.7872253 L26.5702315,14.8225339 L26.637289,14.868435 L26.6548433,14.868435 C28.3899132,15.8101143 29.0376679,17.9882995 28.10132,19.7339547 C27.4784924,20.894194 26.2735633,21.6183726 24.962255,21.6194319 L25.0254506,21.5735308 Z M10.9819879,16.6303322 C9.04609652,15.4905719 8.39553311,12.9879011 9.52884055,11.040987 C10.662148,9.09371988 13.1506496,8.43945224 15.0865409,9.57921259 C15.7936293,9.99550053 16.3588786,10.6169312 16.7085609,11.3622949 C16.3859123,11.8710913 16.1408539,12.4257888 15.9814606,13.0076739 L15.7676489,13.0076739 C13.5501861,13.0154417 11.60306,14.4899273 10.9819879,16.6303322 Z M27.7045922,13.7844622 C27.2636275,10.4873488 24.2488471,8.17357878 20.9704007,8.61670122 C19.7324695,8.7840638 18.5773947,9.33664278 17.6666761,10.1971124 C16.0618594,7.62806151 12.6893218,6.85374477 10.134816,8.46805218 C7.5803101,10.0823596 6.81037725,13.4737469 8.41554504,16.0431508 C8.98570963,16.9555241 9.8097098,17.6786434 10.7853794,18.1238843 C10.8559478,20.8394658 13.0663888,23.0028213 15.7676489,22.9999966 L25.0219397,22.9999966 C27.7677878,23.0031744 29.9961342,20.7677894 29.9999962,18.0066599 C30.0021027,16.2963132 29.1349189,14.7038971 27.7007302,13.7844622 L27.7045922,13.7844622 Z" id="Fill-1" fill="#FFFFFF" mask="url(#mask-2)"></path>
                        </g>
                    </g>
                </g>
            </g>
        </g>
    </g>
</svg>